<svg xmlns="http://www.w3.org/2000/svg" xmlns:xlink="http://www.w3.org/1999/xlink" width="500" zoomAndPan="magnify" viewBox="0 0 375 374.999991" height="500" preserveAspectRatio="xMidYMid meet" version="1.0"><defs><g/><clipPath id="9a7ac5e9f0"><path d="M 221.214844 81.054688 L 255.414062 81.054688 L 255.414062 216.917969 L 221.214844 216.917969 Z M 221.214844 81.054688 " clip-rule="nonzero"/></clipPath><clipPath id="1de8bbeda9"><path d="M 255.414062 83.304688 L 255.414062 214.640625 C 255.414062 215.882812 254.40625 216.890625 253.164062 216.890625 L 223.464844 216.890625 C 222.222656 216.890625 221.214844 215.882812 221.214844 214.640625 L 221.214844 83.304688 C 221.214844 82.0625 222.222656 81.054688 223.464844 81.054688 L 253.164062 81.054688 C 254.40625 81.054688 255.414062 82.0625 255.414062 83.304688 Z M 255.414062 83.304688 " clip-rule="nonzero"/></clipPath><clipPath id="dfd31cc5d1"><path d="M 119.582031 182.691406 L 255.445312 182.691406 L 255.445312 216.890625 L 119.582031 216.890625 Z M 119.582031 182.691406 " clip-rule="nonzero"/></clipPath><clipPath id="33050935d7"><path d="M 121.832031 182.691406 L 253.167969 182.691406 C 254.410156 182.691406 255.417969 183.699219 255.417969 184.941406 L 255.417969 214.640625 C 255.417969 215.882812 254.410156 216.890625 253.167969 216.890625 L 121.832031 216.890625 C 120.589844 216.890625 119.582031 215.882812 119.582031 214.640625 L 119.582031 184.941406 C 119.582031 183.699219 120.589844 182.691406 121.832031 182.691406 Z M 121.832031 182.691406 " clip-rule="nonzero"/></clipPath><clipPath id="0d50eaefa9"><path d="M 119.582031 81.054688 L 213.59375 81.054688 L 213.59375 175.070312 L 119.582031 175.070312 Z M 119.582031 81.054688 " clip-rule="nonzero"/></clipPath><clipPath id="fefec3f034"><path d="M 166.589844 81.054688 C 140.628906 81.054688 119.582031 102.101562 119.582031 128.0625 C 119.582031 154.023438 140.628906 175.070312 166.589844 175.070312 C 192.550781 175.070312 213.59375 154.023438 213.59375 128.0625 C 213.59375 102.101562 192.550781 81.054688 166.589844 81.054688 Z M 166.589844 81.054688 " clip-rule="nonzero"/></clipPath><clipPath id="5c46bd517c"><path d="M 133.4375 94.910156 L 199.4375 94.910156 L 199.4375 160.910156 L 133.4375 160.910156 Z M 133.4375 94.910156 " clip-rule="nonzero"/></clipPath></defs><g clip-path="url(#9a7ac5e9f0)"><g clip-path="url(#1de8bbeda9)"><path fill="#737373" d="M 255.414062 81.054688 L 255.414062 216.917969 L 221.214844 216.917969 L 221.214844 81.054688 Z M 255.414062 81.054688 " fill-opacity="1" fill-rule="nonzero"/></g></g><g clip-path="url(#dfd31cc5d1)"><g clip-path="url(#33050935d7)"><path fill="#737373" d="M 119.582031 182.691406 L 255.445312 182.691406 L 255.445312 216.890625 L 119.582031 216.890625 Z M 119.582031 182.691406 " fill-opacity="1" fill-rule="nonzero"/></g></g><g clip-path="url(#0d50eaefa9)"><g clip-path="url(#fefec3f034)"><path fill="#737373" d="M 119.582031 81.054688 L 213.59375 81.054688 L 213.59375 175.070312 L 119.582031 175.070312 Z M 119.582031 81.054688 " fill-opacity="1" fill-rule="nonzero"/></g></g><g clip-path="url(#5c46bd517c)"><path fill="#ffffff" d="M 166.582031 161.203125 C 157.730469 161.203125 149.40625 157.753906 143.144531 151.496094 C 136.886719 145.234375 133.4375 136.910156 133.4375 128.058594 C 133.4375 119.203125 136.886719 110.878906 143.144531 104.617188 C 149.40625 98.359375 157.730469 94.910156 166.582031 94.910156 C 175.4375 94.910156 183.761719 98.359375 190.023438 104.617188 C 196.28125 110.878906 199.730469 119.203125 199.730469 128.058594 C 199.730469 136.910156 196.28125 145.234375 190.023438 151.496094 C 183.761719 157.757812 175.4375 161.203125 166.582031 161.203125 Z M 166.582031 99.96875 C 151.09375 99.96875 138.496094 112.570312 138.496094 128.058594 C 138.496094 143.546875 151.097656 156.144531 166.582031 156.144531 C 182.070312 156.144531 194.671875 143.542969 194.671875 128.058594 C 194.671875 112.570312 182.070312 99.96875 166.582031 99.96875 Z M 166.582031 99.96875 " fill-opacity="1" fill-rule="nonzero"/></g><path fill="#ffffff" d="M 177.585938 140.855469 C 177.09375 140.855469 176.59375 140.710938 176.15625 140.414062 L 163.835938 131.960938 C 163.144531 131.488281 162.734375 130.707031 162.738281 129.871094 L 162.769531 109.195312 C 162.769531 107.800781 163.902344 106.667969 165.296875 106.667969 C 165.296875 106.667969 165.300781 106.667969 165.300781 106.667969 C 166.699219 106.671875 167.828125 107.804688 167.828125 109.203125 L 167.796875 128.546875 L 179.019531 136.242188 C 180.167969 137.03125 180.464844 138.605469 179.671875 139.757812 C 179.183594 140.472656 178.390625 140.855469 177.585938 140.855469 Z M 177.585938 140.855469 " fill-opacity="1" fill-rule="nonzero"/><g fill="#737373" fill-opacity="1"><g transform="translate(105.532343, 275.72103)"><g><path d="M 13.203125 0.3125 C 10.960938 0.3125 8.941406 -0.171875 7.140625 -1.140625 C 5.347656 -2.117188 3.9375 -3.46875 2.90625 -5.1875 C 1.882812 -6.914062 1.375 -8.84375 1.375 -10.96875 C 1.375 -13.101562 1.882812 -15.03125 2.90625 -16.75 C 3.9375 -18.476562 5.347656 -19.828125 7.140625 -20.796875 C 8.941406 -21.773438 10.960938 -22.265625 13.203125 -22.265625 C 15.441406 -22.265625 17.457031 -21.773438 19.25 -20.796875 C 21.050781 -19.828125 22.460938 -18.484375 23.484375 -16.765625 C 24.515625 -15.054688 25.03125 -13.125 25.03125 -10.96875 C 25.03125 -8.820312 24.515625 -6.890625 23.484375 -5.171875 C 22.460938 -3.460938 21.050781 -2.117188 19.25 -1.140625 C 17.457031 -0.171875 15.441406 0.3125 13.203125 0.3125 Z M 13.203125 -3.265625 C 14.660156 -3.265625 15.972656 -3.59375 17.140625 -4.25 C 18.316406 -4.90625 19.238281 -5.820312 19.90625 -7 C 20.582031 -8.1875 20.921875 -9.507812 20.921875 -10.96875 C 20.921875 -12.4375 20.582031 -13.757812 19.90625 -14.9375 C 19.238281 -16.125 18.316406 -17.046875 17.140625 -17.703125 C 15.972656 -18.359375 14.660156 -18.6875 13.203125 -18.6875 C 11.734375 -18.6875 10.414062 -18.359375 9.25 -17.703125 C 8.082031 -17.046875 7.160156 -16.125 6.484375 -14.9375 C 5.816406 -13.757812 5.484375 -12.4375 5.484375 -10.96875 C 5.484375 -9.507812 5.816406 -8.1875 6.484375 -7 C 7.160156 -5.820312 8.082031 -4.90625 9.25 -4.25 C 10.414062 -3.59375 11.734375 -3.265625 13.203125 -3.265625 Z M 13.203125 -3.265625 "/></g></g></g><g fill="#737373" fill-opacity="1"><g transform="translate(138.391923, 275.72103)"><g><path d="M 22.453125 -21.953125 L 22.453125 0 L 19.09375 0 L 7 -14.859375 L 7 0 L 2.953125 0 L 2.953125 -21.953125 L 6.296875 -21.953125 L 18.40625 -7.09375 L 18.40625 -21.953125 Z M 22.453125 -21.953125 "/></g></g></g><g fill="#737373" fill-opacity="1"><g transform="translate(170.24821, 275.72103)"><g><path d="M 7.40625 -18.5 L 0.125 -18.5 L 0.125 -21.953125 L 18.75 -21.953125 L 18.75 -18.5 L 11.484375 -18.5 L 11.484375 0 L 7.40625 0 Z M 7.40625 -18.5 "/></g></g></g><g fill="#737373" fill-opacity="1"><g transform="translate(195.583082, 275.72103)"><g><path d="M 2.953125 -21.953125 L 7.03125 -21.953125 L 7.03125 0 L 2.953125 0 Z M 2.953125 -21.953125 "/></g></g></g><g fill="#737373" fill-opacity="1"><g transform="translate(212.045065, 275.72103)"><g><path d="M 23.109375 0 L 23.078125 -14.546875 L 15.875 -2.515625 L 14.046875 -2.515625 L 6.84375 -14.359375 L 6.84375 0 L 2.953125 0 L 2.953125 -21.953125 L 6.296875 -21.953125 L 15.015625 -7.40625 L 23.578125 -21.953125 L 26.9375 -21.953125 L 26.96875 0 Z M 23.109375 0 "/></g></g></g><g fill="#737373" fill-opacity="1"><g transform="translate(248.447528, 275.72103)"><g><path d="M 19.40625 -3.421875 L 19.40625 0 L 2.953125 0 L 2.953125 -21.953125 L 18.96875 -21.953125 L 18.96875 -18.53125 L 7.03125 -18.53125 L 7.03125 -12.828125 L 17.625 -12.828125 L 17.625 -9.46875 L 7.03125 -9.46875 L 7.03125 -3.421875 Z M 19.40625 -3.421875 "/></g></g></g><g fill="#737373" fill-opacity="1"><g transform="translate(98.732502, 290.908616)"><g><path d="M 3.625 -6.703125 C 4.488281 -6.703125 5.171875 -6.492188 5.671875 -6.078125 C 6.171875 -5.660156 6.421875 -5.09375 6.421875 -4.375 C 6.421875 -3.644531 6.171875 -3.070312 5.671875 -2.65625 C 5.171875 -2.238281 4.488281 -2.03125 3.625 -2.03125 L 1.96875 -2.03125 L 1.96875 0 L 1 0 L 1 -6.703125 Z M 3.59375 -2.859375 C 4.195312 -2.859375 4.65625 -2.988281 4.96875 -3.25 C 5.289062 -3.507812 5.453125 -3.882812 5.453125 -4.375 C 5.453125 -4.851562 5.289062 -5.222656 4.96875 -5.484375 C 4.65625 -5.742188 4.195312 -5.875 3.59375 -5.875 L 1.96875 -5.875 L 1.96875 -2.859375 Z M 3.59375 -2.859375 "/></g></g></g><g fill="#737373" fill-opacity="1"><g transform="translate(106.773815, 290.908616)"><g><path d="M 1 -6.703125 L 1.96875 -6.703125 L 1.96875 -0.828125 L 5.59375 -0.828125 L 5.59375 0 L 1 0 Z M 1 -6.703125 "/></g></g></g><g fill="#737373" fill-opacity="1"><g transform="translate(113.588324, 290.908616)"><g><path d="M 5.28125 -1.671875 L 1.71875 -1.671875 L 0.984375 0 L -0.015625 0 L 3.03125 -6.703125 L 3.96875 -6.703125 L 7.015625 0 L 6.015625 0 Z M 4.9375 -2.4375 L 3.5 -5.734375 L 2.046875 -2.4375 Z M 4.9375 -2.4375 "/></g></g></g><g fill="#737373" fill-opacity="1"><g transform="translate(121.725478, 290.908616)"><g><path d="M 6.765625 -6.703125 L 6.765625 0 L 5.984375 0 L 1.96875 -5 L 1.96875 0 L 1 0 L 1 -6.703125 L 1.796875 -6.703125 L 5.8125 -1.703125 L 5.8125 -6.703125 Z M 6.765625 -6.703125 "/></g></g></g><g fill="#737373" fill-opacity="1"><g transform="translate(130.629382, 290.908616)"><g/></g></g><g fill="#737373" fill-opacity="1"><g transform="translate(134.32896, 290.908616)"><g><path d="M 5.515625 -3.484375 C 5.898438 -3.367188 6.203125 -3.171875 6.421875 -2.890625 C 6.648438 -2.609375 6.765625 -2.25 6.765625 -1.8125 C 6.765625 -1.226562 6.546875 -0.78125 6.109375 -0.46875 C 5.671875 -0.15625 5.035156 0 4.203125 0 L 1 0 L 1 -6.703125 L 4.015625 -6.703125 C 4.773438 -6.703125 5.363281 -6.546875 5.78125 -6.234375 C 6.207031 -5.929688 6.421875 -5.507812 6.421875 -4.96875 C 6.421875 -4.613281 6.335938 -4.304688 6.171875 -4.046875 C 6.003906 -3.796875 5.785156 -3.609375 5.515625 -3.484375 Z M 1.96875 -5.921875 L 1.96875 -3.78125 L 3.921875 -3.78125 C 4.421875 -3.78125 4.800781 -3.867188 5.0625 -4.046875 C 5.320312 -4.234375 5.453125 -4.503906 5.453125 -4.859375 C 5.453125 -5.210938 5.320312 -5.476562 5.0625 -5.65625 C 4.800781 -5.832031 4.421875 -5.921875 3.921875 -5.921875 Z M 4.171875 -0.78125 C 4.710938 -0.78125 5.117188 -0.867188 5.390625 -1.046875 C 5.660156 -1.222656 5.796875 -1.503906 5.796875 -1.890625 C 5.796875 -2.628906 5.253906 -3 4.171875 -3 L 1.96875 -3 L 1.96875 -0.78125 Z M 4.171875 -0.78125 "/></g></g></g><g fill="#737373" fill-opacity="1"><g transform="translate(142.705723, 290.908616)"><g><path d="M 5.875 -0.828125 L 5.875 0 L 1 0 L 1 -6.703125 L 5.734375 -6.703125 L 5.734375 -5.875 L 1.96875 -5.875 L 1.96875 -3.8125 L 5.328125 -3.8125 L 5.328125 -3 L 1.96875 -3 L 1.96875 -0.828125 Z M 5.875 -0.828125 "/></g></g></g><g fill="#737373" fill-opacity="1"><g transform="translate(150.248646, 290.908616)"><g><path d="M 2.34375 -5.875 L 0.03125 -5.875 L 0.03125 -6.703125 L 5.578125 -6.703125 L 5.578125 -5.875 L 3.28125 -5.875 L 3.28125 0 L 2.34375 0 Z M 2.34375 -5.875 "/></g></g></g><g fill="#737373" fill-opacity="1"><g transform="translate(156.996064, 290.908616)"><g><path d="M 2.34375 -5.875 L 0.03125 -5.875 L 0.03125 -6.703125 L 5.578125 -6.703125 L 5.578125 -5.875 L 3.28125 -5.875 L 3.28125 0 L 2.34375 0 Z M 2.34375 -5.875 "/></g></g></g><g fill="#737373" fill-opacity="1"><g transform="translate(163.743482, 290.908616)"><g><path d="M 5.875 -0.828125 L 5.875 0 L 1 0 L 1 -6.703125 L 5.734375 -6.703125 L 5.734375 -5.875 L 1.96875 -5.875 L 1.96875 -3.8125 L 5.328125 -3.8125 L 5.328125 -3 L 1.96875 -3 L 1.96875 -0.828125 Z M 5.875 -0.828125 "/></g></g></g><g fill="#737373" fill-opacity="1"><g transform="translate(171.286402, 290.908616)"><g><path d="M 5.484375 0 L 4.046875 -2.0625 C 3.867188 -2.050781 3.726562 -2.046875 3.625 -2.046875 L 1.96875 -2.046875 L 1.96875 0 L 1 0 L 1 -6.703125 L 3.625 -6.703125 C 4.488281 -6.703125 5.171875 -6.492188 5.671875 -6.078125 C 6.171875 -5.660156 6.421875 -5.09375 6.421875 -4.375 C 6.421875 -3.851562 6.289062 -3.410156 6.03125 -3.046875 C 5.78125 -2.679688 5.414062 -2.414062 4.9375 -2.25 L 6.53125 0 Z M 3.59375 -2.859375 C 4.195312 -2.859375 4.65625 -2.988281 4.96875 -3.25 C 5.289062 -3.507812 5.453125 -3.882812 5.453125 -4.375 C 5.453125 -4.851562 5.289062 -5.222656 4.96875 -5.484375 C 4.65625 -5.742188 4.195312 -5.875 3.59375 -5.875 L 1.96875 -5.875 L 1.96875 -2.859375 Z M 3.59375 -2.859375 "/></g></g></g><g fill="#737373" fill-opacity="1"><g transform="translate(179.375634, 290.908616)"><g><path d="M 1.09375 -1.25 C 1.28125 -1.25 1.429688 -1.1875 1.546875 -1.0625 C 1.660156 -0.9375 1.71875 -0.785156 1.71875 -0.609375 C 1.71875 -0.503906 1.707031 -0.40625 1.6875 -0.3125 C 1.664062 -0.226562 1.625 -0.09375 1.5625 0.09375 L 1.109375 1.421875 L 0.5 1.421875 L 0.859375 -0.015625 C 0.742188 -0.0546875 0.644531 -0.128906 0.5625 -0.234375 C 0.488281 -0.335938 0.453125 -0.460938 0.453125 -0.609375 C 0.453125 -0.796875 0.515625 -0.945312 0.640625 -1.0625 C 0.765625 -1.1875 0.914062 -1.25 1.09375 -1.25 Z M 1.09375 -1.25 "/></g></g></g><g fill="#737373" fill-opacity="1"><g transform="translate(182.672659, 290.908616)"><g/></g></g><g fill="#737373" fill-opacity="1"><g transform="translate(186.372236, 290.908616)"><g><path d="M 5.28125 -1.671875 L 1.71875 -1.671875 L 0.984375 0 L -0.015625 0 L 3.03125 -6.703125 L 3.96875 -6.703125 L 7.015625 0 L 6.015625 0 Z M 4.9375 -2.4375 L 3.5 -5.734375 L 2.046875 -2.4375 Z M 4.9375 -2.4375 "/></g></g></g><g fill="#737373" fill-opacity="1"><g transform="translate(194.509388, 290.908616)"><g><path d="M 4 0.078125 C 3.332031 0.078125 2.726562 -0.0664062 2.1875 -0.359375 C 1.644531 -0.660156 1.21875 -1.070312 0.90625 -1.59375 C 0.601562 -2.113281 0.453125 -2.703125 0.453125 -3.359375 C 0.453125 -4.003906 0.601562 -4.585938 0.90625 -5.109375 C 1.21875 -5.628906 1.644531 -6.035156 2.1875 -6.328125 C 2.726562 -6.628906 3.335938 -6.78125 4.015625 -6.78125 C 4.535156 -6.78125 5.007812 -6.691406 5.4375 -6.515625 C 5.875 -6.335938 6.25 -6.078125 6.5625 -5.734375 L 5.9375 -5.140625 C 5.4375 -5.660156 4.804688 -5.921875 4.046875 -5.921875 C 3.546875 -5.921875 3.09375 -5.8125 2.6875 -5.59375 C 2.289062 -5.375 1.976562 -5.066406 1.75 -4.671875 C 1.53125 -4.273438 1.421875 -3.835938 1.421875 -3.359375 C 1.421875 -2.867188 1.53125 -2.425781 1.75 -2.03125 C 1.976562 -1.644531 2.289062 -1.335938 2.6875 -1.109375 C 3.09375 -0.890625 3.546875 -0.78125 4.046875 -0.78125 C 4.796875 -0.78125 5.425781 -1.046875 5.9375 -1.578125 L 6.5625 -0.984375 C 6.25 -0.628906 5.875 -0.363281 5.4375 -0.1875 C 5.007812 -0.0078125 4.53125 0.078125 4 0.078125 Z M 4 0.078125 "/></g></g></g><g fill="#737373" fill-opacity="1"><g transform="translate(202.56028, 290.908616)"><g><path d="M 6.765625 -6.703125 L 6.765625 0 L 5.8125 0 L 5.8125 -2.984375 L 1.96875 -2.984375 L 1.96875 0 L 1 0 L 1 -6.703125 L 1.96875 -6.703125 L 1.96875 -3.828125 L 5.8125 -3.828125 L 5.8125 -6.703125 Z M 6.765625 -6.703125 "/></g></g></g><g fill="#737373" fill-opacity="1"><g transform="translate(211.464191, 290.908616)"><g><path d="M 1 -6.703125 L 1.96875 -6.703125 L 1.96875 0 L 1 0 Z M 1 -6.703125 "/></g></g></g><g fill="#737373" fill-opacity="1"><g transform="translate(215.556736, 290.908616)"><g><path d="M 5.875 -0.828125 L 5.875 0 L 1 0 L 1 -6.703125 L 5.734375 -6.703125 L 5.734375 -5.875 L 1.96875 -5.875 L 1.96875 -3.8125 L 5.328125 -3.8125 L 5.328125 -3 L 1.96875 -3 L 1.96875 -0.828125 Z M 5.875 -0.828125 "/></g></g></g><g fill="#737373" fill-opacity="1"><g transform="translate(223.099662, 290.908616)"><g><path d="M 6.828125 -6.703125 L 3.890625 0 L 2.9375 0 L -0.015625 -6.703125 L 1.03125 -6.703125 L 3.4375 -1.203125 L 5.875 -6.703125 Z M 6.828125 -6.703125 "/></g></g></g><g fill="#737373" fill-opacity="1"><g transform="translate(231.045141, 290.908616)"><g><path d="M 5.875 -0.828125 L 5.875 0 L 1 0 L 1 -6.703125 L 5.734375 -6.703125 L 5.734375 -5.875 L 1.96875 -5.875 L 1.96875 -3.8125 L 5.328125 -3.8125 L 5.328125 -3 L 1.96875 -3 L 1.96875 -0.828125 Z M 5.875 -0.828125 "/></g></g></g><g fill="#737373" fill-opacity="1"><g transform="translate(238.588067, 290.908616)"><g/></g></g><g fill="#737373" fill-opacity="1"><g transform="translate(242.28765, 290.908616)"><g><path d="M 7.21875 0 L 7.21875 -4.890625 L 4.796875 -0.8125 L 4.34375 -0.8125 L 1.921875 -4.859375 L 1.921875 0 L 1 0 L 1 -6.703125 L 1.796875 -6.703125 L 4.59375 -2 L 7.34375 -6.703125 L 8.125 -6.703125 L 8.140625 0 Z M 7.21875 0 "/></g></g></g><g fill="#737373" fill-opacity="1"><g transform="translate(252.562137, 290.908616)"><g><path d="M 4.03125 0.078125 C 3.351562 0.078125 2.742188 -0.0664062 2.203125 -0.359375 C 1.660156 -0.660156 1.234375 -1.070312 0.921875 -1.59375 C 0.609375 -2.125 0.453125 -2.710938 0.453125 -3.359375 C 0.453125 -3.992188 0.609375 -4.570312 0.921875 -5.09375 C 1.234375 -5.625 1.660156 -6.035156 2.203125 -6.328125 C 2.742188 -6.628906 3.351562 -6.78125 4.03125 -6.78125 C 4.695312 -6.78125 5.300781 -6.628906 5.84375 -6.328125 C 6.394531 -6.035156 6.820312 -5.628906 7.125 -5.109375 C 7.4375 -4.585938 7.59375 -4.003906 7.59375 -3.359375 C 7.59375 -2.703125 7.4375 -2.113281 7.125 -1.59375 C 6.820312 -1.070312 6.394531 -0.660156 5.84375 -0.359375 C 5.300781 -0.0664062 4.695312 0.078125 4.03125 0.078125 Z M 4.03125 -0.78125 C 4.519531 -0.78125 4.960938 -0.890625 5.359375 -1.109375 C 5.753906 -1.335938 6.0625 -1.644531 6.28125 -2.03125 C 6.507812 -2.425781 6.625 -2.867188 6.625 -3.359375 C 6.625 -3.835938 6.507812 -4.273438 6.28125 -4.671875 C 6.0625 -5.066406 5.753906 -5.375 5.359375 -5.59375 C 4.960938 -5.8125 4.519531 -5.921875 4.03125 -5.921875 C 3.539062 -5.921875 3.09375 -5.8125 2.6875 -5.59375 C 2.289062 -5.375 1.976562 -5.066406 1.75 -4.671875 C 1.53125 -4.273438 1.421875 -3.835938 1.421875 -3.359375 C 1.421875 -2.867188 1.53125 -2.425781 1.75 -2.03125 C 1.976562 -1.644531 2.289062 -1.335938 2.6875 -1.109375 C 3.09375 -0.890625 3.539062 -0.78125 4.03125 -0.78125 Z M 4.03125 -0.78125 "/></g></g></g><g fill="#737373" fill-opacity="1"><g transform="translate(261.734421, 290.908616)"><g><path d="M 5.484375 0 L 4.046875 -2.0625 C 3.867188 -2.050781 3.726562 -2.046875 3.625 -2.046875 L 1.96875 -2.046875 L 1.96875 0 L 1 0 L 1 -6.703125 L 3.625 -6.703125 C 4.488281 -6.703125 5.171875 -6.492188 5.671875 -6.078125 C 6.171875 -5.660156 6.421875 -5.09375 6.421875 -4.375 C 6.421875 -3.851562 6.289062 -3.410156 6.03125 -3.046875 C 5.78125 -2.679688 5.414062 -2.414062 4.9375 -2.25 L 6.53125 0 Z M 3.59375 -2.859375 C 4.195312 -2.859375 4.65625 -2.988281 4.96875 -3.25 C 5.289062 -3.507812 5.453125 -3.882812 5.453125 -4.375 C 5.453125 -4.851562 5.289062 -5.222656 4.96875 -5.484375 C 4.65625 -5.742188 4.195312 -5.875 3.59375 -5.875 L 1.96875 -5.875 L 1.96875 -2.859375 Z M 3.59375 -2.859375 "/></g></g></g><g fill="#737373" fill-opacity="1"><g transform="translate(269.823659, 290.908616)"><g><path d="M 5.875 -0.828125 L 5.875 0 L 1 0 L 1 -6.703125 L 5.734375 -6.703125 L 5.734375 -5.875 L 1.96875 -5.875 L 1.96875 -3.8125 L 5.328125 -3.8125 L 5.328125 -3 L 1.96875 -3 L 1.96875 -0.828125 Z M 5.875 -0.828125 "/></g></g></g></svg>